<mxfile host="app.diagrams.net" modified="2021-08-29T15:10:17.547Z" agent="5.0 (Macintosh; Intel Mac OS X 10_15_7) AppleWebKit/537.36 (KHTML, like Gecko) Chrome/92.0.4515.159 Safari/537.36" etag="aKNF2YfU0b7KxqkhjmMt" version="14.9.8" type="github">
  <diagram id="C5RBs43oDa-KdzZeNtuy" name="Page-1">
    <mxGraphModel dx="626" dy="814" grid="1" gridSize="10" guides="1" tooltips="1" connect="1" arrows="1" fold="1" page="1" pageScale="1" pageWidth="827" pageHeight="1169" math="0" shadow="0">
      <root>
        <mxCell id="WIyWlLk6GJQsqaUBKTNV-0" />
        <mxCell id="WIyWlLk6GJQsqaUBKTNV-1" parent="WIyWlLk6GJQsqaUBKTNV-0" />
        <mxCell id="WIyWlLk6GJQsqaUBKTNV-2" value="" style="rounded=0;html=1;jettySize=auto;orthogonalLoop=1;fontSize=11;endArrow=block;endFill=0;endSize=8;strokeWidth=1;shadow=0;labelBackgroundColor=none;edgeStyle=orthogonalEdgeStyle;" parent="WIyWlLk6GJQsqaUBKTNV-1" source="WIyWlLk6GJQsqaUBKTNV-3" target="WIyWlLk6GJQsqaUBKTNV-6" edge="1">
          <mxGeometry relative="1" as="geometry" />
        </mxCell>
        <mxCell id="WIyWlLk6GJQsqaUBKTNV-3" value="&lt;font style=&quot;font-size: 10px&quot;&gt;웹크롤링 언론기사 수집&lt;br&gt;&lt;/font&gt;&lt;font style=&quot;font-size: 8px&quot;&gt;동아일보, 경향신문, 연합뉴스&lt;br&gt;검색 키워드: 쿠팡&lt;br&gt;&lt;/font&gt;" style="rounded=1;whiteSpace=wrap;html=1;fontSize=11;glass=0;strokeWidth=1;shadow=0;" parent="WIyWlLk6GJQsqaUBKTNV-1" vertex="1">
          <mxGeometry x="161" y="180" width="106" height="60" as="geometry" />
        </mxCell>
        <mxCell id="WIyWlLk6GJQsqaUBKTNV-4" value="작업" style="rounded=0;html=1;jettySize=auto;orthogonalLoop=1;fontSize=11;endArrow=block;endFill=0;endSize=8;strokeWidth=1;shadow=0;labelBackgroundColor=none;edgeStyle=orthogonalEdgeStyle;" parent="WIyWlLk6GJQsqaUBKTNV-1" source="WIyWlLk6GJQsqaUBKTNV-6" target="WIyWlLk6GJQsqaUBKTNV-10" edge="1">
          <mxGeometry y="20" relative="1" as="geometry">
            <mxPoint as="offset" />
          </mxGeometry>
        </mxCell>
        <mxCell id="WIyWlLk6GJQsqaUBKTNV-5" value="결과" style="edgeStyle=orthogonalEdgeStyle;rounded=0;html=1;jettySize=auto;orthogonalLoop=1;fontSize=9;endArrow=block;endFill=0;endSize=8;strokeWidth=1;shadow=0;labelBackgroundColor=none;" parent="WIyWlLk6GJQsqaUBKTNV-1" source="WIyWlLk6GJQsqaUBKTNV-6" target="WIyWlLk6GJQsqaUBKTNV-7" edge="1">
          <mxGeometry y="10" relative="1" as="geometry">
            <mxPoint as="offset" />
          </mxGeometry>
        </mxCell>
        <mxCell id="WIyWlLk6GJQsqaUBKTNV-6" value="&lt;font style=&quot;font-size: 10px&quot;&gt;1차 정제&lt;br&gt;&lt;/font&gt;&lt;font style=&quot;font-size: 8px&quot;&gt;전처리 코딩&lt;/font&gt;" style="rhombus;whiteSpace=wrap;html=1;shadow=0;fontFamily=Helvetica;fontSize=11;align=center;strokeWidth=1;spacing=6;spacingTop=-4;" parent="WIyWlLk6GJQsqaUBKTNV-1" vertex="1">
          <mxGeometry x="164" y="290" width="100" height="80" as="geometry" />
        </mxCell>
        <mxCell id="WIyWlLk6GJQsqaUBKTNV-7" value="&lt;font style=&quot;font-size: 10px&quot;&gt;언론기사&lt;br&gt;&lt;/font&gt;&lt;font style=&quot;font-size: 9px&quot;&gt;(n = 4,145)&lt;/font&gt;" style="rounded=1;whiteSpace=wrap;html=1;fontSize=11;glass=0;strokeWidth=1;shadow=0;" parent="WIyWlLk6GJQsqaUBKTNV-1" vertex="1">
          <mxGeometry x="314" y="310" width="80" height="40" as="geometry" />
        </mxCell>
        <mxCell id="WIyWlLk6GJQsqaUBKTNV-8" value="최종" style="rounded=0;html=1;jettySize=auto;orthogonalLoop=1;fontSize=11;endArrow=block;endFill=0;endSize=8;strokeWidth=1;shadow=0;labelBackgroundColor=none;edgeStyle=orthogonalEdgeStyle;" parent="WIyWlLk6GJQsqaUBKTNV-1" source="WIyWlLk6GJQsqaUBKTNV-10" target="WIyWlLk6GJQsqaUBKTNV-11" edge="1">
          <mxGeometry x="0.3333" y="20" relative="1" as="geometry">
            <mxPoint as="offset" />
          </mxGeometry>
        </mxCell>
        <mxCell id="WIyWlLk6GJQsqaUBKTNV-9" value="결과" style="edgeStyle=orthogonalEdgeStyle;rounded=0;html=1;jettySize=auto;orthogonalLoop=1;fontSize=9;endArrow=block;endFill=0;endSize=8;strokeWidth=1;shadow=0;labelBackgroundColor=none;" parent="WIyWlLk6GJQsqaUBKTNV-1" source="WIyWlLk6GJQsqaUBKTNV-10" target="WIyWlLk6GJQsqaUBKTNV-12" edge="1">
          <mxGeometry y="10" relative="1" as="geometry">
            <mxPoint as="offset" />
          </mxGeometry>
        </mxCell>
        <mxCell id="WIyWlLk6GJQsqaUBKTNV-10" value="&lt;font style=&quot;font-size: 10px&quot;&gt;2차 정제&lt;br&gt;&lt;/font&gt;&lt;font style=&quot;font-size: 8px&quot;&gt;내용 검토&lt;/font&gt;" style="rhombus;whiteSpace=wrap;html=1;shadow=0;fontFamily=Helvetica;fontSize=11;align=center;strokeWidth=1;spacing=6;spacingTop=-4;" parent="WIyWlLk6GJQsqaUBKTNV-1" vertex="1">
          <mxGeometry x="164" y="410" width="100" height="80" as="geometry" />
        </mxCell>
        <mxCell id="WIyWlLk6GJQsqaUBKTNV-11" value="n = 4,110" style="rounded=1;whiteSpace=wrap;html=1;fontSize=11;glass=0;strokeWidth=1;shadow=0;" parent="WIyWlLk6GJQsqaUBKTNV-1" vertex="1">
          <mxGeometry x="154" y="550" width="120" height="40" as="geometry" />
        </mxCell>
        <mxCell id="WIyWlLk6GJQsqaUBKTNV-12" value="&lt;font style=&quot;font-size: 10px&quot;&gt;언론기사&lt;/font&gt;&lt;br style=&quot;font-size: 11px&quot;&gt;&lt;font style=&quot;font-size: 9px&quot;&gt;(n = 4,110)&lt;/font&gt;" style="rounded=1;whiteSpace=wrap;html=1;fontSize=11;glass=0;strokeWidth=1;shadow=0;" parent="WIyWlLk6GJQsqaUBKTNV-1" vertex="1">
          <mxGeometry x="314" y="430" width="80" height="40" as="geometry" />
        </mxCell>
        <mxCell id="o_Thwpqc5d8Y5QQ_MUpu-1" value="" style="endArrow=classic;html=1;exitX=1;exitY=0.5;exitDx=0;exitDy=0;entryX=0;entryY=0.5;entryDx=0;entryDy=0;" parent="WIyWlLk6GJQsqaUBKTNV-1" source="WIyWlLk6GJQsqaUBKTNV-11" target="o_Thwpqc5d8Y5QQ_MUpu-2" edge="1">
          <mxGeometry width="50" height="50" relative="1" as="geometry">
            <mxPoint x="344" y="490" as="sourcePoint" />
            <mxPoint x="444" y="210" as="targetPoint" />
            <Array as="points">
              <mxPoint x="404" y="570" />
              <mxPoint x="404" y="160" />
            </Array>
          </mxGeometry>
        </mxCell>
        <mxCell id="o_Thwpqc5d8Y5QQ_MUpu-2" value="&lt;font style=&quot;font-size: 10px&quot;&gt;형태소 분석 및 명사 추출&lt;br&gt;&lt;/font&gt;&lt;font style=&quot;font-size: 9px&quot;&gt;(n = 1,169,158)&lt;/font&gt;" style="rounded=1;whiteSpace=wrap;html=1;fontSize=11;" parent="WIyWlLk6GJQsqaUBKTNV-1" vertex="1">
          <mxGeometry x="420" y="130" width="120" height="60" as="geometry" />
        </mxCell>
        <mxCell id="o_Thwpqc5d8Y5QQ_MUpu-3" value="작업" style="rounded=0;html=1;jettySize=auto;orthogonalLoop=1;fontSize=11;endArrow=block;endFill=0;endSize=8;strokeWidth=1;shadow=0;labelBackgroundColor=none;edgeStyle=orthogonalEdgeStyle;" parent="WIyWlLk6GJQsqaUBKTNV-1" source="o_Thwpqc5d8Y5QQ_MUpu-5" target="o_Thwpqc5d8Y5QQ_MUpu-9" edge="1">
          <mxGeometry x="-0.3333" y="16" relative="1" as="geometry">
            <mxPoint as="offset" />
            <Array as="points">
              <mxPoint x="480" y="320" />
              <mxPoint x="480" y="320" />
            </Array>
          </mxGeometry>
        </mxCell>
        <mxCell id="o_Thwpqc5d8Y5QQ_MUpu-4" value="결과" style="edgeStyle=orthogonalEdgeStyle;rounded=0;html=1;jettySize=auto;orthogonalLoop=1;fontSize=9;endArrow=block;endFill=0;endSize=8;strokeWidth=1;shadow=0;labelBackgroundColor=none;" parent="WIyWlLk6GJQsqaUBKTNV-1" source="o_Thwpqc5d8Y5QQ_MUpu-5" target="o_Thwpqc5d8Y5QQ_MUpu-6" edge="1">
          <mxGeometry y="10" relative="1" as="geometry">
            <mxPoint as="offset" />
          </mxGeometry>
        </mxCell>
        <mxCell id="o_Thwpqc5d8Y5QQ_MUpu-5" value="&lt;font style=&quot;font-size: 10px&quot;&gt;1차 정제&lt;br&gt;&lt;/font&gt;&lt;font style=&quot;font-size: 8px&quot;&gt;명사길이: 1 &amp;lt; k ≤ 11&lt;br&gt;숫자 제외&lt;/font&gt;" style="rhombus;whiteSpace=wrap;html=1;shadow=0;fontFamily=Helvetica;fontSize=11;align=center;strokeWidth=1;spacing=6;spacingTop=-4;" parent="WIyWlLk6GJQsqaUBKTNV-1" vertex="1">
          <mxGeometry x="430" y="220" width="100" height="60" as="geometry" />
        </mxCell>
        <mxCell id="o_Thwpqc5d8Y5QQ_MUpu-6" value="&lt;font style=&quot;font-size: 10px&quot;&gt;명사&lt;br&gt;&lt;/font&gt;&lt;font style=&quot;font-size: 9px&quot;&gt;(n = 817,388)&lt;/font&gt;" style="rounded=1;whiteSpace=wrap;html=1;fontSize=11;glass=0;strokeWidth=1;shadow=0;" parent="WIyWlLk6GJQsqaUBKTNV-1" vertex="1">
          <mxGeometry x="570" y="235" width="66" height="30" as="geometry" />
        </mxCell>
        <mxCell id="o_Thwpqc5d8Y5QQ_MUpu-7" value="작업" style="rounded=0;html=1;jettySize=auto;orthogonalLoop=1;fontSize=11;endArrow=block;endFill=0;endSize=8;strokeWidth=1;shadow=0;labelBackgroundColor=none;edgeStyle=orthogonalEdgeStyle;" parent="WIyWlLk6GJQsqaUBKTNV-1" source="o_Thwpqc5d8Y5QQ_MUpu-9" target="o_Thwpqc5d8Y5QQ_MUpu-14" edge="1">
          <mxGeometry x="0.2" y="16" relative="1" as="geometry">
            <mxPoint as="offset" />
          </mxGeometry>
        </mxCell>
        <mxCell id="o_Thwpqc5d8Y5QQ_MUpu-8" value="결과" style="edgeStyle=orthogonalEdgeStyle;rounded=0;html=1;jettySize=auto;orthogonalLoop=1;fontSize=9;endArrow=block;endFill=0;endSize=8;strokeWidth=1;shadow=0;labelBackgroundColor=none;" parent="WIyWlLk6GJQsqaUBKTNV-1" source="o_Thwpqc5d8Y5QQ_MUpu-9" target="o_Thwpqc5d8Y5QQ_MUpu-11" edge="1">
          <mxGeometry y="10" relative="1" as="geometry">
            <mxPoint as="offset" />
          </mxGeometry>
        </mxCell>
        <mxCell id="o_Thwpqc5d8Y5QQ_MUpu-9" value="&lt;font style=&quot;font-size: 10px&quot;&gt;2차 정제&lt;br&gt;&lt;/font&gt;&lt;font style=&quot;font-size: 8px&quot;&gt;빈도수: 3 ≤ k&lt;br&gt;&lt;/font&gt;" style="rhombus;whiteSpace=wrap;html=1;shadow=0;fontFamily=Helvetica;fontSize=11;align=center;strokeWidth=1;spacing=6;spacingTop=-4;" parent="WIyWlLk6GJQsqaUBKTNV-1" vertex="1">
          <mxGeometry x="430" y="310" width="100" height="60" as="geometry" />
        </mxCell>
        <mxCell id="o_Thwpqc5d8Y5QQ_MUpu-10" value="n = 659,773" style="rounded=1;whiteSpace=wrap;html=1;fontSize=11;glass=0;strokeWidth=1;shadow=0;" parent="WIyWlLk6GJQsqaUBKTNV-1" vertex="1">
          <mxGeometry x="420" y="580" width="120" height="40" as="geometry" />
        </mxCell>
        <mxCell id="o_Thwpqc5d8Y5QQ_MUpu-11" value="&lt;font style=&quot;font-size: 10px&quot;&gt;명사&lt;br&gt;&lt;/font&gt;&lt;font style=&quot;font-size: 9px&quot;&gt;(n = 766,209)&lt;/font&gt;" style="rounded=1;whiteSpace=wrap;html=1;fontSize=11;glass=0;strokeWidth=1;shadow=0;" parent="WIyWlLk6GJQsqaUBKTNV-1" vertex="1">
          <mxGeometry x="570" y="325" width="66" height="30" as="geometry" />
        </mxCell>
        <mxCell id="o_Thwpqc5d8Y5QQ_MUpu-12" value="" style="rounded=0;html=1;jettySize=auto;orthogonalLoop=1;fontSize=11;endArrow=block;endFill=0;endSize=8;strokeWidth=1;shadow=0;labelBackgroundColor=none;edgeStyle=orthogonalEdgeStyle;" parent="WIyWlLk6GJQsqaUBKTNV-1" edge="1">
          <mxGeometry relative="1" as="geometry">
            <mxPoint x="479.71" y="190" as="sourcePoint" />
            <mxPoint x="480" y="220" as="targetPoint" />
          </mxGeometry>
        </mxCell>
        <mxCell id="o_Thwpqc5d8Y5QQ_MUpu-14" value="&lt;font style=&quot;font-size: 10px&quot;&gt;3차 정제&lt;br&gt;&lt;/font&gt;&lt;font style=&quot;font-size: 8px&quot;&gt;불용어 처리&lt;br&gt;단어 통합&lt;br&gt;&lt;/font&gt;" style="rhombus;whiteSpace=wrap;html=1;shadow=0;fontFamily=Helvetica;fontSize=11;align=center;strokeWidth=1;spacing=6;spacingTop=-4;" parent="WIyWlLk6GJQsqaUBKTNV-1" vertex="1">
          <mxGeometry x="430" y="400" width="100" height="60" as="geometry" />
        </mxCell>
        <mxCell id="o_Thwpqc5d8Y5QQ_MUpu-17" value="결과" style="edgeStyle=orthogonalEdgeStyle;rounded=0;html=1;jettySize=auto;orthogonalLoop=1;fontSize=9;endArrow=block;endFill=0;endSize=8;strokeWidth=1;shadow=0;labelBackgroundColor=none;" parent="WIyWlLk6GJQsqaUBKTNV-1" target="o_Thwpqc5d8Y5QQ_MUpu-18" edge="1">
          <mxGeometry y="10" relative="1" as="geometry">
            <mxPoint as="offset" />
            <mxPoint x="529.9999999999999" y="430.0000000000001" as="sourcePoint" />
            <Array as="points">
              <mxPoint x="550" y="430" />
              <mxPoint x="550" y="430" />
            </Array>
          </mxGeometry>
        </mxCell>
        <mxCell id="o_Thwpqc5d8Y5QQ_MUpu-18" value="&lt;font style=&quot;font-size: 10px&quot;&gt;명사&lt;br&gt;&lt;/font&gt;&lt;font style=&quot;font-size: 9px&quot;&gt;(n = 700,392)&lt;/font&gt;" style="rounded=1;whiteSpace=wrap;html=1;fontSize=11;glass=0;strokeWidth=1;shadow=0;" parent="WIyWlLk6GJQsqaUBKTNV-1" vertex="1">
          <mxGeometry x="570" y="415" width="66" height="30" as="geometry" />
        </mxCell>
        <mxCell id="o_Thwpqc5d8Y5QQ_MUpu-19" value="최종" style="rounded=0;html=1;jettySize=auto;orthogonalLoop=1;fontSize=11;endArrow=block;endFill=0;endSize=8;strokeWidth=1;shadow=0;labelBackgroundColor=none;edgeStyle=orthogonalEdgeStyle;" parent="WIyWlLk6GJQsqaUBKTNV-1" edge="1">
          <mxGeometry x="-0.3333" y="16" relative="1" as="geometry">
            <mxPoint as="offset" />
            <mxPoint x="479.9400000000001" y="549.9999999999999" as="sourcePoint" />
            <mxPoint x="479.9400000000001" y="580.0000000000002" as="targetPoint" />
          </mxGeometry>
        </mxCell>
        <mxCell id="o_Thwpqc5d8Y5QQ_MUpu-24" value="작업" style="rounded=0;html=1;jettySize=auto;orthogonalLoop=1;fontSize=11;endArrow=block;endFill=0;endSize=8;strokeWidth=1;shadow=0;labelBackgroundColor=none;edgeStyle=orthogonalEdgeStyle;" parent="WIyWlLk6GJQsqaUBKTNV-1" target="o_Thwpqc5d8Y5QQ_MUpu-25" edge="1">
          <mxGeometry x="-0.6" y="16" relative="1" as="geometry">
            <mxPoint as="offset" />
            <mxPoint x="480.0000000000001" y="459.9999999999999" as="sourcePoint" />
          </mxGeometry>
        </mxCell>
        <mxCell id="o_Thwpqc5d8Y5QQ_MUpu-25" value="&lt;font style=&quot;font-size: 10px&quot;&gt;4차 정제&lt;br&gt;&lt;/font&gt;&lt;font style=&quot;font-size: 8px&quot;&gt;빈도수 : 10&amp;nbsp;&amp;nbsp;≤ k&lt;br&gt;&lt;/font&gt;" style="rhombus;whiteSpace=wrap;html=1;shadow=0;fontFamily=Helvetica;fontSize=11;align=center;strokeWidth=1;spacing=6;spacingTop=-4;" parent="WIyWlLk6GJQsqaUBKTNV-1" vertex="1">
          <mxGeometry x="430" y="490" width="100" height="60" as="geometry" />
        </mxCell>
        <mxCell id="o_Thwpqc5d8Y5QQ_MUpu-26" value="결과" style="edgeStyle=orthogonalEdgeStyle;rounded=0;html=1;jettySize=auto;orthogonalLoop=1;fontSize=9;endArrow=block;endFill=0;endSize=8;strokeWidth=1;shadow=0;labelBackgroundColor=none;" parent="WIyWlLk6GJQsqaUBKTNV-1" target="o_Thwpqc5d8Y5QQ_MUpu-27" edge="1">
          <mxGeometry y="10" relative="1" as="geometry">
            <mxPoint as="offset" />
            <mxPoint x="529.9999999999999" y="520.0000000000001" as="sourcePoint" />
            <Array as="points">
              <mxPoint x="550" y="520" />
              <mxPoint x="550" y="520" />
            </Array>
          </mxGeometry>
        </mxCell>
        <mxCell id="o_Thwpqc5d8Y5QQ_MUpu-27" value="명사&lt;br&gt;&lt;font style=&quot;font-size: 9px&quot;&gt;(n = 659,773)&lt;/font&gt;" style="rounded=1;whiteSpace=wrap;html=1;fontSize=11;glass=0;strokeWidth=1;shadow=0;" parent="WIyWlLk6GJQsqaUBKTNV-1" vertex="1">
          <mxGeometry x="570" y="505" width="66" height="30" as="geometry" />
        </mxCell>
        <mxCell id="AkGz2d8EXF-ztuJMse4d-0" value="결과" style="edgeStyle=orthogonalEdgeStyle;rounded=0;html=1;jettySize=auto;orthogonalLoop=1;fontSize=9;endArrow=block;endFill=0;endSize=8;strokeWidth=1;shadow=0;labelBackgroundColor=none;exitX=1;exitY=0.5;exitDx=0;exitDy=0;" edge="1" parent="WIyWlLk6GJQsqaUBKTNV-1" target="AkGz2d8EXF-ztuJMse4d-1" source="WIyWlLk6GJQsqaUBKTNV-3">
          <mxGeometry y="10" relative="1" as="geometry">
            <mxPoint as="offset" />
            <mxPoint x="270" y="210" as="sourcePoint" />
          </mxGeometry>
        </mxCell>
        <mxCell id="AkGz2d8EXF-ztuJMse4d-1" value="&lt;font style=&quot;font-size: 10px&quot;&gt;언론기사&lt;br&gt;&lt;/font&gt;&lt;span style=&quot;font-size: 9px&quot;&gt;(n = 7,356)&lt;/span&gt;" style="rounded=1;whiteSpace=wrap;html=1;fontSize=11;glass=0;strokeWidth=1;shadow=0;" vertex="1" parent="WIyWlLk6GJQsqaUBKTNV-1">
          <mxGeometry x="310" y="190" width="80" height="40" as="geometry" />
        </mxCell>
      </root>
    </mxGraphModel>
  </diagram>
</mxfile>
